<svg width="14.000000" height="16.000000" viewBox="0 0 14 16" fill="none" xmlns="http://www.w3.org/2000/svg" xmlns:xlink="http://www.w3.org/1999/xlink">
	<desc>
			Created with Pixso.
	</desc>
	<defs>
		<clipPath id="clip2_6732">
			<rect id="Frame" width="14.000000" height="16.000000" fill="white" fill-opacity="0"/>
		</clipPath>
	</defs>
	<rect id="Frame" width="14.000000" height="16.000000" fill="#FFFFFF" fill-opacity="0"/>
	<g clip-path="url(#clip2_6732)">
		<path id="Vector" d="M2.33301 12.6665L11.6665 12.6665L11.6665 8L12.833 8L12.833 13.3335C12.833 13.5103 12.7715 13.6797 12.6621 13.8047C12.5527 13.9297 12.4048 14 12.25 14L1.75 14C1.59521 14 1.44678 13.9297 1.3374 13.8047C1.22803 13.6797 1.1665 13.5103 1.1665 13.3335L1.1665 8L2.33301 8L2.33301 12.6665ZM8.1665 6L11.083 6L7 10.6665L2.9165 6L5.83301 6L5.83301 2L8.1665 2L8.1665 6Z" fill="#2B2B2B" fill-opacity="1.000000" fill-rule="nonzero"/>
	</g>
</svg>
