<svg width="24.000000" height="24.000000" viewBox="0 0 24 24" fill="none" xmlns="http://www.w3.org/2000/svg" xmlns:xlink="http://www.w3.org/1999/xlink">
	<desc>
			Created with Pixso.
	</desc>
	<defs>
		<clipPath id="clip2_6946">
			<rect id="Icons-instagram" width="14.000000" height="14.000000" transform="translate(5.000000 5.000000)" fill="white" fill-opacity="0"/>
		</clipPath>
	</defs>
	<circle id="Ellipse 9" cx="12.000000" cy="12.000000" r="12.000000" fill="#FFB400" fill-opacity="1.000000"/>
	<rect id="Icons-instagram" width="14.000000" height="14.000000" transform="translate(5.000000 5.000000)" fill="#FFFFFF" fill-opacity="0"/>
	<rect id="Icons-instagram" width="14.000000" height="14.000000" transform="translate(5.000000 5.000000)" fill="#FFFFFF" fill-opacity="0"/>
	<rect id="Icons-instagram" width="14.000000" height="14.000000" transform="translate(5.000000 5.000000)" fill="#FFFFFF" fill-opacity="0"/>
	<g clip-path="url(#clip2_6946)">
		<path id="Vector" d="M12 6.1665C13.585 6.1665 13.7827 6.17236 14.4043 6.20166C15.0254 6.23047 15.4487 6.32812 15.8208 6.47266C16.2056 6.62109 16.5298 6.82178 16.8545 7.14551C17.1509 7.43701 17.3804 7.78955 17.5269 8.1792C17.6709 8.55078 17.769 8.97412 17.7983 9.59521C17.8257 10.2173 17.833 10.415 17.833 12C17.833 13.585 17.8271 13.7827 17.7983 14.4043C17.769 15.0254 17.6709 15.4487 17.5269 15.8208C17.3809 16.2104 17.1514 16.563 16.8545 16.8545C16.5625 17.1509 16.21 17.3804 15.8208 17.5269C15.4492 17.6709 15.0254 17.769 14.4043 17.7983C13.7827 17.8257 13.585 17.833 12 17.833C10.415 17.833 10.2173 17.8271 9.59521 17.7983C8.97412 17.769 8.55127 17.6709 8.1792 17.5269C7.78955 17.3809 7.43652 17.1514 7.14551 16.8545C6.84863 16.563 6.61914 16.21 6.47266 15.8208C6.32812 15.4492 6.23047 15.0254 6.20166 14.4043C6.17432 13.7827 6.1665 13.585 6.1665 12C6.1665 10.415 6.17236 10.2173 6.20166 9.59521C6.23047 8.97363 6.32812 8.55127 6.47266 8.1792C6.61865 7.78955 6.84814 7.43652 7.14551 7.14551C7.43701 6.84863 7.78955 6.61914 8.1792 6.47266C8.55127 6.32812 8.97363 6.23047 9.59521 6.20166C10.2173 6.17432 10.415 6.1665 12 6.1665ZM12 9.08301C11.2261 9.08301 10.4844 9.39062 9.9375 9.9375C9.39062 10.4844 9.08301 11.2261 9.08301 12C9.08301 12.7734 9.39062 13.5151 9.9375 14.062C10.4844 14.6094 11.2261 14.9165 12 14.9165C12.7734 14.9165 13.5151 14.6094 14.062 14.062C14.6094 13.5151 14.9165 12.7734 14.9165 12C14.9165 11.2261 14.6094 10.4844 14.062 9.9375C13.5151 9.39062 12.7734 9.08301 12 9.08301ZM15.7915 8.9375C15.7915 8.74414 15.7148 8.55859 15.5781 8.42188C15.4414 8.28516 15.2559 8.20801 15.0625 8.20801C14.8691 8.20801 14.6836 8.28516 14.5469 8.42188C14.4102 8.55859 14.333 8.74414 14.333 8.9375C14.333 9.13086 14.4102 9.31641 14.5469 9.45312C14.6836 9.58984 14.8691 9.6665 15.0625 9.6665C15.2559 9.6665 15.4414 9.58984 15.5781 9.45312C15.7148 9.31641 15.7915 9.13086 15.7915 8.9375ZM12 10.25C12.4639 10.25 12.9092 10.4341 13.2373 10.7622C13.5654 11.0908 13.75 11.5356 13.75 12C13.75 12.4639 13.5654 12.9092 13.2373 13.2373C12.9092 13.5654 12.4639 13.75 12 13.75C11.5356 13.75 11.0908 13.5654 10.7622 13.2373C10.4341 12.9092 10.25 12.4639 10.25 12C10.25 11.5356 10.4341 11.0908 10.7622 10.7622C11.0908 10.4341 11.5356 10.25 12 10.25Z" fill="#2B2B2B" fill-opacity="1.000000" fill-rule="nonzero"/>
	</g>
</svg>
