<svg width="24.000000" height="24.000000" viewBox="0 0 24 24" fill="none" xmlns="http://www.w3.org/2000/svg" xmlns:xlink="http://www.w3.org/1999/xlink">
	<desc>
			Created with Pixso.
	</desc>
	<defs>
		<clipPath id="clip2_6936">
			<rect id="Icons-twitter" width="14.000000" height="14.000000" transform="translate(5.000000 5.000000)" fill="white" fill-opacity="0"/>
		</clipPath>
	</defs>
	<circle id="Ellipse 9" cx="12.000000" cy="12.000000" r="12.000000" fill="#FFB400" fill-opacity="1.000000"/>
	<rect id="Icons-twitter" width="14.000000" height="14.000000" transform="translate(5.000000 5.000000)" fill="#FFFFFF" fill-opacity="0"/>
	<rect id="Icons-twitter" width="14.000000" height="14.000000" transform="translate(5.000000 5.000000)" fill="#FFFFFF" fill-opacity="0"/>
	<rect id="Icons-twitter" width="14.000000" height="14.000000" transform="translate(5.000000 5.000000)" fill="#FFFFFF" fill-opacity="0"/>
	<g clip-path="url(#clip2_6936)">
		<path id="Vector" d="M17.9277 8.29932C17.4824 8.49658 17.0103 8.62598 16.5264 8.68359C17.0361 8.37842 17.4175 7.89893 17.5996 7.3335C17.1216 7.61816 16.5972 7.81787 16.0503 7.92578C15.6836 7.53271 15.1968 7.27246 14.666 7.18457C14.1357 7.09668 13.5913 7.18701 13.1172 7.44043C12.6431 7.69434 12.2661 8.09766 12.0449 8.5874C11.8237 9.07764 11.7705 9.62695 11.8936 10.1504C10.9238 10.1021 9.97461 9.84961 9.1084 9.41064C8.24219 8.97119 7.47803 8.35498 6.86523 7.60107C6.64844 7.97363 6.53467 8.39697 6.53516 8.82812C6.53516 9.67383 6.96582 10.4209 7.62012 10.8584C7.23291 10.8462 6.854 10.7417 6.51514 10.5537L6.51514 10.584C6.51562 11.147 6.71045 11.6934 7.06689 12.1294C7.42383 12.5649 7.92041 12.8643 8.47266 12.9761C8.11279 13.0737 7.73584 13.0879 7.37012 13.0181C7.52539 13.5029 7.8291 13.9272 8.23779 14.231C8.64648 14.5347 9.13965 14.7031 9.64893 14.7129C9.14307 15.1104 8.56348 15.4038 7.94385 15.5771C7.32422 15.7505 6.67627 15.8003 6.0376 15.7231C7.15283 16.4404 8.45068 16.8208 9.77686 16.8198C14.2642 16.8198 16.7183 13.1021 16.7183 9.87793C16.7183 9.77295 16.7153 9.66699 16.7109 9.56299C17.1885 9.21777 17.6006 8.79004 17.9282 8.30029L17.9277 8.29932Z" fill="#2B2B2B" fill-opacity="1.000000" fill-rule="nonzero"/>
	</g>
</svg>
